<svg viewBox="0 0 330 200" xmlns="http://www.w3.org/2000/svg"><g><g><g><g><g><line x1="51.5625" y1="177" x2="46.5625" y2="177" style="visibility: inherit;" fill="rgb(0, 0, 0)" stroke="rgb(204, 204, 204)" stroke-width="1px"></line><line x1="51.5625" y1="159.3" x2="46.5625" y2="159.3" style="visibility: inherit;" fill="rgb(0, 0, 0)" stroke="rgb(204, 204, 204)" stroke-width="1px"></line><line x1="51.5625" y1="141.6" x2="46.5625" y2="141.6" style="visibility: inherit;" fill="rgb(0, 0, 0)" stroke="rgb(204, 204, 204)" stroke-width="1px"></line><line x1="51.5625" y1="123.89999999999999" x2="46.5625" y2="123.89999999999999" style="visibility: inherit;" fill="rgb(0, 0, 0)" stroke="rgb(204, 204, 204)" stroke-width="1px"></line><line x1="51.5625" y1="106.2" x2="46.5625" y2="106.2" style="visibility: inherit;" fill="rgb(0, 0, 0)" stroke="rgb(204, 204, 204)" stroke-width="1px"></line><line x1="51.5625" y1="88.5" x2="46.5625" y2="88.5" style="visibility: inherit;" fill="rgb(0, 0, 0)" stroke="rgb(204, 204, 204)" stroke-width="1px"></line><line x1="51.5625" y1="70.8" x2="46.5625" y2="70.8" style="visibility: inherit;" fill="rgb(0, 0, 0)" stroke="rgb(204, 204, 204)" stroke-width="1px"></line><line x1="51.5625" y1="53.10000000000001" x2="46.5625" y2="53.10000000000001" style="visibility: inherit;" fill="rgb(0, 0, 0)" stroke="rgb(204, 204, 204)" stroke-width="1px"></line><line x1="51.5625" y1="35.40000000000001" x2="46.5625" y2="35.40000000000001" style="visibility: inherit;" fill="rgb(0, 0, 0)" stroke="rgb(204, 204, 204)" stroke-width="1px"></line><line x1="51.5625" y1="17.699999999999996" x2="46.5625" y2="17.699999999999996" style="visibility: inherit;" fill="rgb(0, 0, 0)" stroke="rgb(204, 204, 204)" stroke-width="1px"></line><line x1="51.5625" y1="0" x2="46.5625" y2="0" style="visibility: inherit;" fill="rgb(0, 0, 0)" stroke="rgb(204, 204, 204)" stroke-width="1px"></line></g><g transform="translate(41.5625, 0)"><text x="0" y="177" dx="0em" dy="0.3em" style="text-anchor: end; visibility: hidden; font-family: Roboto, sans-serif; font-size: 12px; font-weight: 200;" fill="rgb(33, 33, 33)" stroke="none" stroke-width="1px">-0.2</text><text x="0" y="159.3" dx="0em" dy="0.3em" style="text-anchor: end; visibility: inherit; font-family: Roboto, sans-serif; font-size: 12px; font-weight: 200;" fill="rgb(33, 33, 33)" stroke="none" stroke-width="1px">0</text><text x="0" y="141.6" dx="0em" dy="0.3em" style="text-anchor: end; visibility: hidden; font-family: Roboto, sans-serif; font-size: 12px; font-weight: 200;" fill="rgb(33, 33, 33)" stroke="none" stroke-width="1px">0.2</text><text x="0" y="123.89999999999999" dx="0em" dy="0.3em" style="text-anchor: end; visibility: inherit; font-family: Roboto, sans-serif; font-size: 12px; font-weight: 200;" fill="rgb(33, 33, 33)" stroke="none" stroke-width="1px">0.4</text><text x="0" y="106.2" dx="0em" dy="0.3em" style="text-anchor: end; visibility: hidden; font-family: Roboto, sans-serif; font-size: 12px; font-weight: 200;" fill="rgb(33, 33, 33)" stroke="none" stroke-width="1px">0.6</text><text x="0" y="88.5" dx="0em" dy="0.3em" style="text-anchor: end; visibility: inherit; font-family: Roboto, sans-serif; font-size: 12px; font-weight: 200;" fill="rgb(33, 33, 33)" stroke="none" stroke-width="1px">0.8</text><text x="0" y="70.8" dx="0em" dy="0.3em" style="text-anchor: end; visibility: hidden; font-family: Roboto, sans-serif; font-size: 12px; font-weight: 200;" fill="rgb(33, 33, 33)" stroke="none" stroke-width="1px">1</text><text x="0" y="53.10000000000001" dx="0em" dy="0.3em" style="text-anchor: end; visibility: inherit; font-family: Roboto, sans-serif; font-size: 12px; font-weight: 200;" fill="rgb(33, 33, 33)" stroke="none" stroke-width="1px">1.2</text><text x="0" y="35.40000000000001" dx="0em" dy="0.3em" style="text-anchor: end; visibility: hidden; font-family: Roboto, sans-serif; font-size: 12px; font-weight: 200;" fill="rgb(33, 33, 33)" stroke="none" stroke-width="1px">1.4</text><text x="0" y="17.699999999999996" dx="0em" dy="0.3em" style="text-anchor: end; visibility: inherit; font-family: Roboto, sans-serif; font-size: 12px; font-weight: 200;" fill="rgb(33, 33, 33)" stroke="none" stroke-width="1px">1.6</text><text x="0" y="0" dx="0em" dy="0.3em" style="text-anchor: end; visibility: hidden; font-family: Roboto, sans-serif; font-size: 12px; font-weight: 200;" fill="rgb(33, 33, 33)" stroke="none" stroke-width="1px">1.8</text></g><line x1="51.5625" y1="0" x2="51.5625" y2="177" fill="rgb(0, 0, 0)" stroke="rgb(204, 204, 204)" stroke-width="1px"></line></g></g><g transform="translate(51, 0)" clip-path="url(#clip_0)"><clipPath id="clip_0"><rect width="278" height="176"></rect></clipPath><g><g><g><line x1="0" y1="0" x2="0" y2="177" fill="rgb(0, 0, 0)" stroke="rgb(66, 66, 66)" stroke-width="1px" opacity="0.25"></line><line x1="25.3125" y1="0" x2="25.3125" y2="177" fill="rgb(0, 0, 0)" stroke="rgb(66, 66, 66)" stroke-width="1px" opacity="0.25"></line><line x1="50.625" y1="0" x2="50.625" y2="177" fill="rgb(0, 0, 0)" stroke="rgb(66, 66, 66)" stroke-width="1px" opacity="0.25"></line><line x1="75.9375" y1="0" x2="75.9375" y2="177" fill="rgb(0, 0, 0)" stroke="rgb(66, 66, 66)" stroke-width="1px" opacity="0.25"></line><line x1="101.25" y1="0" x2="101.25" y2="177" fill="rgb(0, 0, 0)" stroke="rgb(66, 66, 66)" stroke-width="1px" opacity="0.25"></line><line x1="126.5625" y1="0" x2="126.5625" y2="177" fill="rgb(0, 0, 0)" stroke="rgb(66, 66, 66)" stroke-width="1px" opacity="0.25"></line><line x1="151.875" y1="0" x2="151.875" y2="177" fill="rgb(0, 0, 0)" stroke="rgb(66, 66, 66)" stroke-width="1px" opacity="0.25"></line><line x1="177.1875" y1="0" x2="177.1875" y2="177" fill="rgb(0, 0, 0)" stroke="rgb(66, 66, 66)" stroke-width="1px" opacity="0.25"></line><line x1="202.5" y1="0" x2="202.5" y2="177" fill="rgb(0, 0, 0)" stroke="rgb(66, 66, 66)" stroke-width="1px" opacity="0.25"></line><line x1="227.8125" y1="0" x2="227.8125" y2="177" fill="rgb(0, 0, 0)" stroke="rgb(66, 66, 66)" stroke-width="1px" opacity="0.25"></line><line x1="253.125" y1="0" x2="253.125" y2="177" fill="rgb(0, 0, 0)" stroke="rgb(66, 66, 66)" stroke-width="1px" opacity="0.25"></line><line x1="278.4375" y1="0" x2="278.4375" y2="177" fill="rgb(0, 0, 0)" stroke="rgb(66, 66, 66)" stroke-width="1px" opacity="0.25"></line></g><g><line x1="0" y1="177" x2="278.4375" y2="177" fill="rgb(0, 0, 0)" stroke="rgb(66, 66, 66)" stroke-width="1px" opacity="0.25"></line><line x1="0" y1="159.3" x2="278.4375" y2="159.3" fill="rgb(0, 0, 0)" stroke="rgb(66, 66, 66)" stroke-width="1px" opacity="0.25"></line><line x1="0" y1="141.6" x2="278.4375" y2="141.6" fill="rgb(0, 0, 0)" stroke="rgb(66, 66, 66)" stroke-width="1px" opacity="0.25"></line><line x1="0" y1="123.89999999999999" x2="278.4375" y2="123.89999999999999" fill="rgb(0, 0, 0)" stroke="rgb(66, 66, 66)" stroke-width="1px" opacity="0.25"></line><line x1="0" y1="106.2" x2="278.4375" y2="106.2" fill="rgb(0, 0, 0)" stroke="rgb(66, 66, 66)" stroke-width="1px" opacity="0.25"></line><line x1="0" y1="88.5" x2="278.4375" y2="88.5" fill="rgb(0, 0, 0)" stroke="rgb(66, 66, 66)" stroke-width="1px" opacity="0.25"></line><line x1="0" y1="70.8" x2="278.4375" y2="70.8" fill="rgb(0, 0, 0)" stroke="rgb(66, 66, 66)" stroke-width="1px" opacity="0.25"></line><line x1="0" y1="53.10000000000001" x2="278.4375" y2="53.10000000000001" fill="rgb(0, 0, 0)" stroke="rgb(66, 66, 66)" stroke-width="1px" opacity="0.25"></line><line x1="0" y1="35.40000000000001" x2="278.4375" y2="35.40000000000001" fill="rgb(0, 0, 0)" stroke="rgb(66, 66, 66)" stroke-width="1px" opacity="0.25"></line><line x1="0" y1="17.699999999999996" x2="278.4375" y2="17.699999999999996" fill="rgb(0, 0, 0)" stroke="rgb(66, 66, 66)" stroke-width="1px" opacity="0.25"></line><line x1="0" y1="0" x2="278.4375" y2="0" fill="rgb(0, 0, 0)" stroke="rgb(66, 66, 66)" stroke-width="1px" opacity="0.25"></line></g></g></g><g><g><line x1="0" y1="159.3" x2="278.4375" y2="159.3" fill="rgb(0, 0, 0)" stroke="rgb(153, 153, 153)" stroke-width="1.5px"></line></g></g><g><g><line x1="-25.3125" y1="0" x2="-25.3125" y2="177" fill="rgb(0, 0, 0)" stroke="rgb(153, 153, 153)" stroke-width="1.5px"></line></g></g><g><g><g><g><g><path stroke="rgb(204, 51, 17)" stroke-width="2px" d="M22.17375,-50.18183012008669L27.23625,47.67195890433201L32.29875,96.27978040776831L37.36125,118.69564550040579L42.42375,122.79641629447605L47.486250000000005,133.5601043451493L52.54875,139.34260422184116L57.61125,145.12674399502848L62.67375,146.65179318552566L67.73625,146.28042501935334L69.66,148.09945214502193L74.7225,151.41320863399443L79.785,150.87366190362343L84.8475,149.1593980504794L89.91000000000001,152.34312373165355L94.97250000000001,152.57811185493853L100.03500000000001,151.91310309833483L105.0975,153.28842408075724L110.16,152.65451854226046L115.2225,153.11675217465654L117.14625,154.95024471645698L122.20875,155.0498738052765L127.27125000000001,151.3913084015897L132.33375,149.78951861259162L137.39625,151.9504627180202L142.45875,152.39267092602728L147.52125,152.6470094545054L152.58375,153.09281182983793L157.64625,153.45640416519205L162.70875,151.84992026285389L164.6325,150.70081776181752L169.695,151.81137751161341L174.7575,148.9580825220093L179.82000000000002,151.7874948471734L184.88250000000002,152.69486893625313L189.94500000000002,153.0126757378442L195.00750000000002,152.5244579678881L200.07000000000002,146.66058204188732L205.1325,145.09266669857044L210.195,146.96094685171275L212.11875,145.17358099922583L217.18125,149.17987389213266L222.24375,148.58205098986335L227.30625,149.92182930015463L232.36875,153.10618362173503L237.43125,149.80671538455968L242.49374999999998,150.88042374281764L247.55624999999998,149.53653477361362L252.61874999999998,150.91614099030758L257.68125,152.09715426110805" style="fill: none;" fill="none"></path></g><g><path stroke="rgb(0, 119, 187)" stroke-width="2px" d="M32.29875,-50.717203021537586L37.36125,34.05934569335231L42.42375,66.45406502150531L47.486250000000005,91.83523566290377L52.54875,114.25616002595127L57.61125,127.92767450056867L62.67375,132.35299290819015L67.73625,140.09968597017047L69.66,136.90991057495216L74.7225,136.53412014413442L79.785,140.96372810499534L84.8475,139.8964547850728L89.91000000000001,137.2687269185683L94.97250000000001,138.9222614554797L100.03500000000001,133.68418290868908L105.0975,138.34634993565746L110.16,142.8341631058729L115.2225,143.728874967329L117.14625,146.83103703056253L122.20875,149.50793442872214L127.27125000000001,144.68399531763677L132.33375,144.0973482855957L137.39625,148.61693740210896L142.45875,144.50163168246073L147.52125,139.6896512399538L152.58375,143.9811773682433L157.64625,147.6365434079041L162.70875,143.8759740496121L164.6325,139.74373356596752L169.695,141.13124225935445L174.7575,145.76248865880495L179.82000000000002,147.8106245886176L184.88250000000002,148.65952910122627L189.94500000000002,151.94862298120412L195.00750000000002,150.446802953357L200.07000000000002,144.3767214986647L205.1325,138.34482472507483L210.195,143.56086196725803L212.11875,139.354709545733L217.18125,142.54583923845146L222.24375,146.3410613963772L227.30625,147.6254330849519L232.36875,149.3116039334733L237.43125,149.3061325388311L242.49374999999998,148.82257891877245L247.55624999999998,145.39363505698623L252.61874999999998,146.78327904634043L257.68125,148.1158638111199" style="fill: none;" fill="none"></path></g><g><path stroke="rgb(255, 112, 67)" stroke-width="2px" d="M22.17375,-50.18183012008669L27.23625,38.7108473547409L32.29875,87.75989880422581L37.36125,113.33928690757119L42.42375,117.25297868379161L47.486250000000005,126.436332025832L52.54875,134.19693421416693L57.61125,139.84148623610076L62.67375,141.6100067577918L67.73625,144.14560375955122L69.66,144.3447981567543L74.7225,146.04422614781586L79.785,144.1507995099347L84.8475,141.56332612638454L89.91000000000001,139.23986127205612L94.97250000000001,142.4275724381482L100.03500000000001,137.44683668426262L105.0975,136.25637734705674L110.16,139.1708853236605L115.2225,137.90200797867908L117.14625,142.5717154554209L122.20875,147.19955318500257L127.27125000000001,145.9317084229778L132.33375,139.61637165754573L137.39625,142.3438501264882L142.45875,139.61039869323676L147.52125,135.08932151599294L152.58375,139.46780864644876L157.64625,146.2935363932971L162.70875,136.4976843420465L164.6325,134.63779522993977L169.695,135.88269581118874L174.7575,143.8777917043172L179.82000000000002,144.88881377890297L184.88250000000002,149.90443514537148L189.94500000000002,153.47151336668085L195.00750000000002,147.89821712832438L200.07000000000002,136.0435721278856L205.1325,136.91971948216963L210.195,138.4099148614007L212.11875,136.52060562049655L217.18125,133.25714876322974L222.24375,140.60005240862083L227.30625,142.71193448159747L232.36875,147.17911860260472L237.43125,138.134369889368L242.49374999999998,138.34130379716095L247.55624999999998,140.5290002312334L252.61874999999998,135.9118298906981L257.68125,135.41490345700853" style="fill: none;" fill="none"></path></g><g><path stroke="rgb(51, 187, 238)" stroke-width="2px" d="M42.42375,-17.28611673760703L47.486250000000005,9.172485195778318L52.54875,27.16627753359808L57.61125,36.649438032283165L62.67375,35.17507865806561L67.73625,41.10247788645674L69.66,34.540495151398154L74.7225,39.5993500776855L79.785,48.29656644271289L84.8475,49.170449049847285L89.91000000000001,56.9544060300519L94.97250000000001,52.36517180055579L100.03500000000001,50.64691462021093L105.0975,51.739791965768966L110.16,52.78396604468301L115.2225,59.66386253104323L117.14625,72.08959382465095L122.20875,89.65766340073354L127.27125000000001,96.74310471857585L132.33375,100.6237558314357L137.39625,115.86139969599688L142.45875,118.71584639920196L147.52125,116.43839057683672L152.58375,127.72068393032511L157.64625,129.3956312410339L162.70875,126.5740257158263L164.6325,128.22141077594438L169.695,137.0425575748668L174.7575,138.5634288660438L179.82000000000002,140.84444050638763L184.88250000000002,145.56091109239003L189.94500000000002,147.49281367597635L195.00750000000002,144.29411836662095L200.07000000000002,141.2340818040235L205.1325,133.18838529165217L210.195,132.9178380798337L212.11875,138.41796250346258L217.18125,139.62255680039212L222.24375,142.97791309842907L227.30625,139.94186121027843L232.36875,143.41622405238436L237.43125,145.83730357103698L242.49374999999998,138.40970342991898L247.55624999999998,137.5023414867368L252.61874999999998,136.01115036358254L257.68125,140.08591032746034" style="fill: none;" fill="none"></path></g></g></g></g><g opacity="0.2"><g><g><g><path stroke="rgb(204, 51, 17)" stroke-width="2px" d="M22.17375,-50.18183012008669L27.23625,106.18852474093437L32.29875,142.72960906773807L37.36125,144.90990565270187L42.42375,128.11647670269014L47.486250000000005,148.3473066084087L52.54875,147.55106544792653L57.61125,153.4957114711404L62.67375,148.88329916372896L67.73625,145.73339422345163L69.66,150.78954375833274L74.7225,156.32538862265648L79.785,150.072731076926L84.8475,146.6125130608678L89.91000000000001,157.07557184826584L94.97250000000001,152.92751497328283L100.03500000000001,150.9241257749498L105.0975,155.33397238254548L110.16,151.71163481399418L115.2225,153.8043141245842L117.14625,157.6775856178254L122.20875,155.19807523973287L127.27125000000001,145.94903140068055L132.33375,147.40677411407233L137.39625,155.16498740315438L142.45875,153.05048141554L147.52125,153.0253532409668L152.58375,153.75596996694804L157.64625,153.99727007299663L162.70875,149.46017635166646L164.6325,148.9914566718042L169.695,153.46340400651098L174.7575,144.71362908482553L179.82000000000002,155.99642145931722L184.88250000000002,154.04464428797365L189.94500000000002,153.48543311208488L195.00750000000002,151.79820367991925L200.07000000000002,137.93770198076965L205.1325,142.7602951258421L210.195,149.7401297606528L212.11875,142.51476314216853L217.18125,155.13948371373118L222.24375,147.69275224506856L227.30625,151.91483285576106L232.36875,157.84310870636256L237.43125,144.89855119138957L242.49374999999998,152.4776316985488L247.55624999999998,147.537416356802L252.61874999999998,152.96839103400708L257.68125,153.85398494750262" style="fill: none;" fill="none"></path></g><g><path stroke="rgb(0, 119, 187)" stroke-width="2px" d="M22.17375,-741.8720867156982L27.23625,81.25541480183601L32.29875,117.52292254865169L37.36125,133.20138164162637L42.42375,108.4807649731636L47.486250000000005,126.70400017797947L52.54875,146.08344791382552L57.61125,147.70874212235213L62.67375,138.8282755047083L67.73625,151.5106793113053L69.66,132.192670288682L74.7225,135.97706345021726L79.785,147.53926524817945L84.8475,138.31080483198167L89.91000000000001,133.36274159252645L94.97250000000001,141.3808968767524L100.03500000000001,125.89429916739464L105.0975,145.2805041924119L110.16,149.50942583307625L115.2225,145.05973838567735L117.14625,151.44553819969298L122.20875,153.48990434333683L127.27125000000001,137.50817365497352L132.33375,143.22468072474004L137.39625,155.34007787816228L142.45875,138.37987450808288L147.52125,132.5315422743559L152.58375,150.36508339941503L157.64625,153.07412467449905L162.70875,138.28189513385297L164.6325,133.5967700958252L169.695,143.19524748176337L174.7575,152.65175519809128L179.82000000000002,150.85735402554275L184.88250000000002,149.922327324003L189.94500000000002,156.8413545984775L195.00750000000002,148.21275228559972L200.07000000000002,135.34709789156915L205.1325,129.37200318574907L210.195,151.3200417302549L212.11875,133.09779624938966L217.18125,147.29284310638906L222.24375,151.98669037520887L227.30625,149.53601584509016L232.36875,151.81988793164493L237.43125,149.29799349904062L242.49374999999998,148.10326283723117L247.55624999999998,140.2928678199649L252.61874999999998,148.85046090111138L257.68125,150.09816652089359" style="fill: none;" fill="none"></path></g><g><path stroke="rgb(255, 112, 67)" stroke-width="2px" d="M22.17375,-50.18183012008669L27.23625,91.8686684846878L32.29875,134.6313685655594L37.36125,143.25313281565906L42.42375,122.33033553063869L47.486250000000005,139.05246347486974L52.54875,145.2133809953928L57.61125,148.00848671346904L62.67375,144.19776860922576L67.73625,147.88057560771705L69.66,144.63937934786082L74.7225,148.5633901834488L79.785,141.34009994119407L84.8475,137.71911211609842L89.91000000000001,135.7861476123333L94.97250000000001,147.16737037450076L100.03500000000001,130.03966397345067L105.0975,134.48577826023103L110.16,143.50598255842925L115.2225,136.01458196640016L117.14625,149.51795816347004L122.20875,154.0836088165641L127.27125000000001,144.04573355913163L132.33375,130.22198418080808L137.39625,146.40112622380258L142.45875,135.5442303299904L147.52125,128.363948571682L152.58375,145.98107445538045L157.64625,156.44722522348167L162.70875,121.92575009465217L164.6325,131.87109506428243L169.695,137.73456262350084L174.7575,155.77099320217968L179.82000000000002,146.39277192503215L184.88250000000002,157.36548365391792L189.94500000000002,158.77776397294366L195.00750000000002,139.60759245157243L200.07000000000002,118.40905055701732L205.1325,138.22304315418006L210.195,140.62667315751315L212.11875,133.71014063358308L217.18125,128.4025537401438L222.24375,151.523078224808L227.30625,145.85349040031434L232.36875,153.82433279156686L237.43125,124.67974369525909L242.49374999999998,138.6491308540106L247.55624999999998,143.78333472758533L252.61874999999998,129.04350187182428L257.68125,134.6756944835186" style="fill: none;" fill="none"></path></g><g><path stroke="rgb(51, 187, 238)" stroke-width="2px" d="M22.17375,-741.8720867156982L27.23625,3.2608367085456886L32.29875,35.575934278965L37.36125,47.055603253841404L42.42375,13.60044919252396L47.486250000000005,45.52142958641053L52.54875,52.70909636020661L57.61125,50.37045185565949L62.67375,33.01774381399155L67.73625,49.833624529838566L69.66,24.83622275590897L74.7225,47.098394143581395L79.785,61.207160282135014L84.8475,50.468778061866765L89.91000000000001,68.52486662864685L94.97250000000001,45.54145352840424L100.03500000000001,48.091583776474L105.0975,53.36525498628617L110.16,54.33709137439728L115.2225,69.89755110740661L117.14625,90.57300971746444L122.20875,115.79072496592998L127.27125000000001,107.28301041126251L132.33375,106.39642347693443L137.39625,138.52824342548848L142.45875,122.9620022803545L147.52125,113.05053870677948L152.58375,144.50378123223783L157.64625,131.88721813559533L162.70875,122.37671342790127L164.6325,130.6719980120659L169.695,150.16456044763328L174.7575,140.82581933140756L179.82000000000002,144.23758703023196L184.88250000000002,152.57695422247053L189.94500000000002,150.36663886830212L195.00750000000002,139.53586021363736L200.07000000000002,136.68208714127542L205.1325,121.21991141438484L210.195,132.51538227796556L212.11875,146.59973962157966L217.18125,141.41446572840215L222.24375,147.96921425610782L227.30625,135.42554521858693L232.36875,148.5845548465848L237.43125,149.4388099193573L242.49374999999998,127.36068630516529L247.55624999999998,136.15258416831495L252.61874999999998,133.79291083216668L257.68125,146.1473691791296" style="fill: none;" fill="none"></path></g></g></g></g></g><g><g><span fill="rgb(0, 0, 0)" stroke="none" stroke-width="1px">Alt + Scroll to Zoom</span></g></g></g><g transform="translate(51, 177)" clip-path="url(#clip_1)"><clipPath id="clip_1"><rect width="278" height="22"></rect></clipPath><g><g><line x1="0" y1="0" x2="0" y2="5" style="visibility: inherit;" fill="rgb(0, 0, 0)" stroke="rgb(204, 204, 204)" stroke-width="1px"></line><line x1="25.3125" y1="0" x2="25.3125" y2="5" style="visibility: inherit;" fill="rgb(0, 0, 0)" stroke="rgb(204, 204, 204)" stroke-width="1px"></line><line x1="50.625" y1="0" x2="50.625" y2="5" style="visibility: inherit;" fill="rgb(0, 0, 0)" stroke="rgb(204, 204, 204)" stroke-width="1px"></line><line x1="75.9375" y1="0" x2="75.9375" y2="5" style="visibility: inherit;" fill="rgb(0, 0, 0)" stroke="rgb(204, 204, 204)" stroke-width="1px"></line><line x1="101.25" y1="0" x2="101.25" y2="5" style="visibility: inherit;" fill="rgb(0, 0, 0)" stroke="rgb(204, 204, 204)" stroke-width="1px"></line><line x1="126.5625" y1="0" x2="126.5625" y2="5" style="visibility: inherit;" fill="rgb(0, 0, 0)" stroke="rgb(204, 204, 204)" stroke-width="1px"></line><line x1="151.875" y1="0" x2="151.875" y2="5" style="visibility: inherit;" fill="rgb(0, 0, 0)" stroke="rgb(204, 204, 204)" stroke-width="1px"></line><line x1="177.1875" y1="0" x2="177.1875" y2="5" style="visibility: inherit;" fill="rgb(0, 0, 0)" stroke="rgb(204, 204, 204)" stroke-width="1px"></line><line x1="202.5" y1="0" x2="202.5" y2="5" style="visibility: inherit;" fill="rgb(0, 0, 0)" stroke="rgb(204, 204, 204)" stroke-width="1px"></line><line x1="227.8125" y1="0" x2="227.8125" y2="5" style="visibility: inherit;" fill="rgb(0, 0, 0)" stroke="rgb(204, 204, 204)" stroke-width="1px"></line><line x1="253.125" y1="0" x2="253.125" y2="5" style="visibility: inherit;" fill="rgb(0, 0, 0)" stroke="rgb(204, 204, 204)" stroke-width="1px"></line><line x1="278.4375" y1="0" x2="278.4375" y2="5" style="visibility: inherit;" fill="rgb(0, 0, 0)" stroke="rgb(204, 204, 204)" stroke-width="1px"></line></g><g transform="translate(0, 8)"><text x="0" y="0" dx="0em" dy="0.95em" style="text-anchor: middle; visibility: hidden; font-family: Roboto, sans-serif; font-size: 12px; font-weight: 200;" fill="rgb(33, 33, 33)" stroke="none" stroke-width="1px">500</text><text x="25.3125" y="0" dx="0em" dy="0.95em" style="text-anchor: middle; visibility: inherit; font-family: Roboto, sans-serif; font-size: 12px; font-weight: 200;" fill="rgb(33, 33, 33)" stroke="none" stroke-width="1px">1k</text><text x="50.625" y="0" dx="0em" dy="0.95em" style="text-anchor: middle; visibility: inherit; font-family: Roboto, sans-serif; font-size: 12px; font-weight: 200;" fill="rgb(33, 33, 33)" stroke="none" stroke-width="1px">1.5k</text><text x="75.9375" y="0" dx="0em" dy="0.95em" style="text-anchor: middle; visibility: inherit; font-family: Roboto, sans-serif; font-size: 12px; font-weight: 200;" fill="rgb(33, 33, 33)" stroke="none" stroke-width="1px">2k</text><text x="101.25" y="0" dx="0em" dy="0.95em" style="text-anchor: middle; visibility: inherit; font-family: Roboto, sans-serif; font-size: 12px; font-weight: 200;" fill="rgb(33, 33, 33)" stroke="none" stroke-width="1px">2.5k</text><text x="126.5625" y="0" dx="0em" dy="0.95em" style="text-anchor: middle; visibility: inherit; font-family: Roboto, sans-serif; font-size: 12px; font-weight: 200;" fill="rgb(33, 33, 33)" stroke="none" stroke-width="1px">3k</text><text x="151.875" y="0" dx="0em" dy="0.95em" style="text-anchor: middle; visibility: inherit; font-family: Roboto, sans-serif; font-size: 12px; font-weight: 200;" fill="rgb(33, 33, 33)" stroke="none" stroke-width="1px">3.5k</text><text x="177.1875" y="0" dx="0em" dy="0.95em" style="text-anchor: middle; visibility: inherit; font-family: Roboto, sans-serif; font-size: 12px; font-weight: 200;" fill="rgb(33, 33, 33)" stroke="none" stroke-width="1px">4k</text><text x="202.5" y="0" dx="0em" dy="0.95em" style="text-anchor: middle; visibility: inherit; font-family: Roboto, sans-serif; font-size: 12px; font-weight: 200;" fill="rgb(33, 33, 33)" stroke="none" stroke-width="1px">4.5k</text><text x="227.8125" y="0" dx="0em" dy="0.95em" style="text-anchor: middle; visibility: inherit; font-family: Roboto, sans-serif; font-size: 12px; font-weight: 200;" fill="rgb(33, 33, 33)" stroke="none" stroke-width="1px">5k</text><text x="253.125" y="0" dx="0em" dy="0.95em" style="text-anchor: middle; visibility: inherit; font-family: Roboto, sans-serif; font-size: 12px; font-weight: 200;" fill="rgb(33, 33, 33)" stroke="none" stroke-width="1px">5.5k</text><text x="278.4375" y="0" dx="0em" dy="0.95em" style="text-anchor: middle; visibility: hidden; font-family: Roboto, sans-serif; font-size: 12px; font-weight: 200;" fill="rgb(33, 33, 33)" stroke="none" stroke-width="1px">6k</text></g><line x1="0" y1="0" x2="278.4375" y2="0" fill="rgb(0, 0, 0)" stroke="rgb(204, 204, 204)" stroke-width="1px"></line></g></g></g></g></svg>