<svg viewBox="0 0 330 200" xmlns="http://www.w3.org/2000/svg"><g><g><g><g><g><line x1="41.171875" y1="177" x2="36.171875" y2="177" style="visibility: inherit;" fill="rgb(0, 0, 0)" stroke="rgb(204, 204, 204)" stroke-width="1px"></line><line x1="41.171875" y1="159.3" x2="36.171875" y2="159.3" style="visibility: inherit;" fill="rgb(0, 0, 0)" stroke="rgb(204, 204, 204)" stroke-width="1px"></line><line x1="41.171875" y1="141.6" x2="36.171875" y2="141.6" style="visibility: inherit;" fill="rgb(0, 0, 0)" stroke="rgb(204, 204, 204)" stroke-width="1px"></line><line x1="41.171875" y1="123.89999999999999" x2="36.171875" y2="123.89999999999999" style="visibility: inherit;" fill="rgb(0, 0, 0)" stroke="rgb(204, 204, 204)" stroke-width="1px"></line><line x1="41.171875" y1="106.2" x2="36.171875" y2="106.2" style="visibility: inherit;" fill="rgb(0, 0, 0)" stroke="rgb(204, 204, 204)" stroke-width="1px"></line><line x1="41.171875" y1="88.5" x2="36.171875" y2="88.5" style="visibility: inherit;" fill="rgb(0, 0, 0)" stroke="rgb(204, 204, 204)" stroke-width="1px"></line><line x1="41.171875" y1="70.8" x2="36.171875" y2="70.8" style="visibility: inherit;" fill="rgb(0, 0, 0)" stroke="rgb(204, 204, 204)" stroke-width="1px"></line><line x1="41.171875" y1="53.09999999999999" x2="36.171875" y2="53.09999999999999" style="visibility: inherit;" fill="rgb(0, 0, 0)" stroke="rgb(204, 204, 204)" stroke-width="1px"></line><line x1="41.171875" y1="35.39999999999999" x2="36.171875" y2="35.39999999999999" style="visibility: inherit;" fill="rgb(0, 0, 0)" stroke="rgb(204, 204, 204)" stroke-width="1px"></line><line x1="41.171875" y1="17.699999999999996" x2="36.171875" y2="17.699999999999996" style="visibility: inherit;" fill="rgb(0, 0, 0)" stroke="rgb(204, 204, 204)" stroke-width="1px"></line><line x1="41.171875" y1="0" x2="36.171875" y2="0" style="visibility: inherit;" fill="rgb(0, 0, 0)" stroke="rgb(204, 204, 204)" stroke-width="1px"></line></g><g transform="translate(31.171875, 0)"><text x="0" y="177" dx="0em" dy="0.3em" style="text-anchor: end; visibility: hidden; font-family: Roboto, sans-serif; font-size: 12px; font-weight: 200;" fill="rgb(33, 33, 33)" stroke="none" stroke-width="1px">0.2</text><text x="0" y="159.3" dx="0em" dy="0.3em" style="text-anchor: end; visibility: inherit; font-family: Roboto, sans-serif; font-size: 12px; font-weight: 200;" fill="rgb(33, 33, 33)" stroke="none" stroke-width="1px">0.4</text><text x="0" y="141.6" dx="0em" dy="0.3em" style="text-anchor: end; visibility: hidden; font-family: Roboto, sans-serif; font-size: 12px; font-weight: 200;" fill="rgb(33, 33, 33)" stroke="none" stroke-width="1px">0.6</text><text x="0" y="123.89999999999999" dx="0em" dy="0.3em" style="text-anchor: end; visibility: inherit; font-family: Roboto, sans-serif; font-size: 12px; font-weight: 200;" fill="rgb(33, 33, 33)" stroke="none" stroke-width="1px">0.8</text><text x="0" y="106.2" dx="0em" dy="0.3em" style="text-anchor: end; visibility: hidden; font-family: Roboto, sans-serif; font-size: 12px; font-weight: 200;" fill="rgb(33, 33, 33)" stroke="none" stroke-width="1px">1</text><text x="0" y="88.5" dx="0em" dy="0.3em" style="text-anchor: end; visibility: inherit; font-family: Roboto, sans-serif; font-size: 12px; font-weight: 200;" fill="rgb(33, 33, 33)" stroke="none" stroke-width="1px">1.2</text><text x="0" y="70.8" dx="0em" dy="0.3em" style="text-anchor: end; visibility: hidden; font-family: Roboto, sans-serif; font-size: 12px; font-weight: 200;" fill="rgb(33, 33, 33)" stroke="none" stroke-width="1px">1.4</text><text x="0" y="53.09999999999999" dx="0em" dy="0.3em" style="text-anchor: end; visibility: inherit; font-family: Roboto, sans-serif; font-size: 12px; font-weight: 200;" fill="rgb(33, 33, 33)" stroke="none" stroke-width="1px">1.6</text><text x="0" y="35.39999999999999" dx="0em" dy="0.3em" style="text-anchor: end; visibility: hidden; font-family: Roboto, sans-serif; font-size: 12px; font-weight: 200;" fill="rgb(33, 33, 33)" stroke="none" stroke-width="1px">1.8</text><text x="0" y="17.699999999999996" dx="0em" dy="0.3em" style="text-anchor: end; visibility: inherit; font-family: Roboto, sans-serif; font-size: 12px; font-weight: 200;" fill="rgb(33, 33, 33)" stroke="none" stroke-width="1px">2</text><text x="0" y="0" dx="0em" dy="0.3em" style="text-anchor: end; visibility: hidden; font-family: Roboto, sans-serif; font-size: 12px; font-weight: 200;" fill="rgb(33, 33, 33)" stroke="none" stroke-width="1px">2.2</text></g><line x1="41.171875" y1="0" x2="41.171875" y2="177" fill="rgb(0, 0, 0)" stroke="rgb(204, 204, 204)" stroke-width="1px"></line></g></g><g transform="translate(41, 0)" clip-path="url(#clip_0)"><clipPath id="clip_0"><rect width="288" height="176"></rect></clipPath><g><g><g><line x1="0" y1="0" x2="0" y2="177" fill="rgb(0, 0, 0)" stroke="rgb(66, 66, 66)" stroke-width="1px" opacity="0.25"></line><line x1="32.092013888888886" y1="0" x2="32.092013888888886" y2="177" fill="rgb(0, 0, 0)" stroke="rgb(66, 66, 66)" stroke-width="1px" opacity="0.25"></line><line x1="64.18402777777777" y1="0" x2="64.18402777777777" y2="177" fill="rgb(0, 0, 0)" stroke="rgb(66, 66, 66)" stroke-width="1px" opacity="0.25"></line><line x1="96.27604166666666" y1="0" x2="96.27604166666666" y2="177" fill="rgb(0, 0, 0)" stroke="rgb(66, 66, 66)" stroke-width="1px" opacity="0.25"></line><line x1="128.36805555555554" y1="0" x2="128.36805555555554" y2="177" fill="rgb(0, 0, 0)" stroke="rgb(66, 66, 66)" stroke-width="1px" opacity="0.25"></line><line x1="160.46006944444446" y1="0" x2="160.46006944444446" y2="177" fill="rgb(0, 0, 0)" stroke="rgb(66, 66, 66)" stroke-width="1px" opacity="0.25"></line><line x1="192.55208333333331" y1="0" x2="192.55208333333331" y2="177" fill="rgb(0, 0, 0)" stroke="rgb(66, 66, 66)" stroke-width="1px" opacity="0.25"></line><line x1="224.64409722222223" y1="0" x2="224.64409722222223" y2="177" fill="rgb(0, 0, 0)" stroke="rgb(66, 66, 66)" stroke-width="1px" opacity="0.25"></line><line x1="256.7361111111111" y1="0" x2="256.7361111111111" y2="177" fill="rgb(0, 0, 0)" stroke="rgb(66, 66, 66)" stroke-width="1px" opacity="0.25"></line><line x1="288.828125" y1="0" x2="288.828125" y2="177" fill="rgb(0, 0, 0)" stroke="rgb(66, 66, 66)" stroke-width="1px" opacity="0.25"></line></g><g><line x1="0" y1="177" x2="288.828125" y2="177" fill="rgb(0, 0, 0)" stroke="rgb(66, 66, 66)" stroke-width="1px" opacity="0.25"></line><line x1="0" y1="159.3" x2="288.828125" y2="159.3" fill="rgb(0, 0, 0)" stroke="rgb(66, 66, 66)" stroke-width="1px" opacity="0.25"></line><line x1="0" y1="141.6" x2="288.828125" y2="141.6" fill="rgb(0, 0, 0)" stroke="rgb(66, 66, 66)" stroke-width="1px" opacity="0.25"></line><line x1="0" y1="123.89999999999999" x2="288.828125" y2="123.89999999999999" fill="rgb(0, 0, 0)" stroke="rgb(66, 66, 66)" stroke-width="1px" opacity="0.25"></line><line x1="0" y1="106.2" x2="288.828125" y2="106.2" fill="rgb(0, 0, 0)" stroke="rgb(66, 66, 66)" stroke-width="1px" opacity="0.25"></line><line x1="0" y1="88.5" x2="288.828125" y2="88.5" fill="rgb(0, 0, 0)" stroke="rgb(66, 66, 66)" stroke-width="1px" opacity="0.25"></line><line x1="0" y1="70.8" x2="288.828125" y2="70.8" fill="rgb(0, 0, 0)" stroke="rgb(66, 66, 66)" stroke-width="1px" opacity="0.25"></line><line x1="0" y1="53.09999999999999" x2="288.828125" y2="53.09999999999999" fill="rgb(0, 0, 0)" stroke="rgb(66, 66, 66)" stroke-width="1px" opacity="0.25"></line><line x1="0" y1="35.39999999999999" x2="288.828125" y2="35.39999999999999" fill="rgb(0, 0, 0)" stroke="rgb(66, 66, 66)" stroke-width="1px" opacity="0.25"></line><line x1="0" y1="17.699999999999996" x2="288.828125" y2="17.699999999999996" fill="rgb(0, 0, 0)" stroke="rgb(66, 66, 66)" stroke-width="1px" opacity="0.25"></line><line x1="0" y1="0" x2="288.828125" y2="0" fill="rgb(0, 0, 0)" stroke="rgb(66, 66, 66)" stroke-width="1px" opacity="0.25"></line></g></g></g><g><g><line x1="0" y1="194.70000000000002" x2="288.828125" y2="194.70000000000002" fill="rgb(0, 0, 0)" stroke="rgb(153, 153, 153)" stroke-width="1.5px"></line></g></g><g><g><line x1="0" y1="0" x2="0" y2="177" fill="rgb(0, 0, 0)" stroke="rgb(153, 153, 153)" stroke-width="1.5px"></line></g></g><g><g><g><g><g><path stroke="rgb(204, 51, 17)" stroke-width="2px" d="M25.35269097222222,-8.52222769260405L28.56189236111111,3.2684242844581566L31.77109375,6.895979417586808L34.98029513888889,18.370028491931805L38.18949652777778,24.22788216880756L41.39869791666667,31.101919443900545L44.607899305555556,39.073275017546216L47.81710069444445,40.864314132503495L50.70538194444444,42.48208565955782L53.91458333333333,41.30366325863985L57.12378472222222,41.54783107946081L60.33298611111111,48.123413685102996L63.5421875,50.90236641782413L66.75138888888888,53.46683235938379L69.96059027777778,59.92585419376758L73.16979166666667,65.68848726223092L76.05807291666666,64.85283369299451L79.26727430555556,64.51590124551761L82.47647569444445,67.84045851665773L85.68567708333335,67.02126944255326L88.89487847222222,67.44604780882518L92.10407986111112,61.10842554797208L95.31328125,66.36371548660098L98.52248263888889,70.8590515025729L101.41076388888888,77.1428267581741L104.61996527777778,81.78054275689414L107.82916666666667,82.7633949765359L111.03836805555555,84.59685697666235L114.24756944444444,80.34315395570599L117.45677083333334,87.90843192108471L120.66597222222222,86.00332254035257L123.87517361111111,86.88585304288206L126.76345486111111,88.7457797930768L129.97265625,96.5172068847272L133.18185763888889,99.9986693893164L136.39105902777777,98.33343116200713L139.60026041666666,98.4066811122465L142.80946180555557,105.10121735423908L146.01866319444443,102.71325695751625L149.22786458333334,100.66925886023112L152.11614583333332,105.02752688011243L155.32534722222223,104.74069988285038L158.53454861111112,104.40566492282332L161.74375,112.15901669995984L164.9529513888889,114.3181503771225L168.16215277777778,108.43249427272802L171.3713541666667,111.5386892307605L174.58055555555555,110.85121462515275L177.46883680555555,115.98747601856523L180.67803819444444,120.66548285219714L183.88723958333335,119.74593895752965L187.0964409722222,120.18700135278674L190.3056423611111,120.7102915723808L193.51484375,124.72437790392387L196.7240451388889,126.76829689835766L199.93324652777775,123.13879805144684L202.82152777777776,133.59041628919493L206.03072916666667,139.5170492797052L209.23993055555556,138.0391640871139L212.44913194444445,138.1905277186258L215.65833333333333,138.48805037102838L218.86753472222222,136.82054430104338L222.0767361111111,135.00119436178827L225.28593750000002,134.90816298242942L228.17421875000002,141.28366507242046L231.38342013888888,138.42146766155912L234.59262152777777,141.56605728131507L237.80182291666668,142.56114428318722L241.01102430555557,138.91873550341836L244.22022569444442,145.58552156523652L247.42942708333334,148.98101890942925L250.63862847222222,150.20200407899304L253.52690972222223,154.96541892407467L256.7361111111111,157.07254468630632L259.9453125,157.77154362816142L263.15451388888886,156.51476497303562L266.36371527777777,154.75602128297757L269.5729166666667,155.69145874375505L272.78211805555554,155.72163310643674L275.99131944444446,155.25765024302387" style="fill: none;" fill="none"></path></g></g></g></g><g opacity="0.2"><g><g><g><path stroke="rgb(204, 51, 17)" stroke-width="2px" d="M25.35269097222222,-8.52222769260405L28.56189236111111,10.342815470695491L31.77109375,10.378432345390316L34.98029513888889,31.863510203361507L38.18949652777778,31.875895929336544L41.39869791666667,40.61118764877319L44.607899305555556,50.47244102954864L47.81710069444445,43.47566635608673L50.70538194444444,44.86798442602157L53.91458333333333,39.55384333133697L57.12378472222222,41.91186822652816L60.33298611111111,57.95100356340408L63.5421875,55.06172175407409L66.75138888888888,57.30850721597671L69.96059027777778,69.60679460763932L73.16979166666667,74.32837260961533L76.05807291666666,63.59970695972442L79.26727430555556,64.01058812141419L82.47647569444445,72.82678796052933L85.68567708333335,65.7925607085228L88.89487847222222,68.08319206237793L92.10407986111112,51.602200698852535L95.31328125,74.24654663801194L98.52248263888889,77.60200227499008L101.41076388888888,86.56844497919083L104.61996527777778,88.73709697723389L107.82916666666667,84.23767079114914L111.03836805555555,87.34704716205597L114.24756944444444,73.96260334253311L117.45677083333334,99.2563446879387L120.66597222222222,83.14565910100937L123.87517361111111,88.20964862108231L126.76345486111111,91.53566969633103L129.97265625,108.17434696555138L133.18185763888889,105.22086299657822L136.39105902777777,95.83557386398316L139.60026041666666,98.51655603647232L142.80946180555557,115.1430216550827L146.01866319444443,99.13131637573242L149.22786458333334,97.60326172113419L152.11614583333332,111.56492890119553L155.32534722222223,104.3104593873024L158.53454861111112,103.9031124830246L161.74375,123.7890443623066L164.9529513888889,117.55685089230538L168.16215277777778,99.60401011705399L171.3713541666667,116.19798166751862L174.58055555555555,109.82000271677971L177.46883680555555,123.69186810851097L180.67803819444444,127.68249310255051L183.88723958333335,118.36662311553955L187.0964409722222,120.84859494566918L190.3056423611111,121.49522690176964L193.51484375,130.74550740122794L196.7240451388889,129.8341753900051L199.93324652777775,117.69454978108406L202.82152777777776,149.26784364581107L206.03072916666667,148.4069987654686L209.23993055555556,135.8223362982273L212.44913194444445,138.41757316589354L215.65833333333333,138.93433434963225L218.86753472222222,134.3192851960659L222.0767361111111,132.27216945290564L225.28593750000002,134.7686159133911L228.17421875000002,150.846918207407L231.38342013888888,134.1281715452671L234.59262152777777,146.28294171094893L237.80182291666668,144.05377478599547L241.01102430555557,133.45512233376502L244.22022569444442,155.58570065796374L247.42942708333334,154.0742649257183L250.63862847222222,152.03348183333873L253.52690972222223,162.1105411916971L256.7361111111111,160.23323332965373L259.9453125,158.8200420409441L263.15451388888886,154.6295969903469L266.36371527777777,152.11790574789046L269.5729166666667,157.09461493492125L272.78211805555554,155.76689465045928L275.99131944444446,154.56167594790458" style="fill: none;" fill="none"></path></g></g></g></g></g><g><g opacity="0.409098"><span fill="rgb(0, 0, 0)" stroke="none" stroke-width="1px">Alt + Scroll to Zoom</span></g></g></g><g transform="translate(41, 177)" clip-path="url(#clip_1)"><clipPath id="clip_1"><rect width="288" height="22"></rect></clipPath><g><g><line x1="0" y1="0" x2="0" y2="5" style="visibility: inherit;" fill="rgb(0, 0, 0)" stroke="rgb(204, 204, 204)" stroke-width="1px"></line><line x1="32.092013888888886" y1="0" x2="32.092013888888886" y2="5" style="visibility: inherit;" fill="rgb(0, 0, 0)" stroke="rgb(204, 204, 204)" stroke-width="1px"></line><line x1="64.18402777777777" y1="0" x2="64.18402777777777" y2="5" style="visibility: inherit;" fill="rgb(0, 0, 0)" stroke="rgb(204, 204, 204)" stroke-width="1px"></line><line x1="96.27604166666666" y1="0" x2="96.27604166666666" y2="5" style="visibility: inherit;" fill="rgb(0, 0, 0)" stroke="rgb(204, 204, 204)" stroke-width="1px"></line><line x1="128.36805555555554" y1="0" x2="128.36805555555554" y2="5" style="visibility: inherit;" fill="rgb(0, 0, 0)" stroke="rgb(204, 204, 204)" stroke-width="1px"></line><line x1="160.46006944444446" y1="0" x2="160.46006944444446" y2="5" style="visibility: inherit;" fill="rgb(0, 0, 0)" stroke="rgb(204, 204, 204)" stroke-width="1px"></line><line x1="192.55208333333331" y1="0" x2="192.55208333333331" y2="5" style="visibility: inherit;" fill="rgb(0, 0, 0)" stroke="rgb(204, 204, 204)" stroke-width="1px"></line><line x1="224.64409722222223" y1="0" x2="224.64409722222223" y2="5" style="visibility: inherit;" fill="rgb(0, 0, 0)" stroke="rgb(204, 204, 204)" stroke-width="1px"></line><line x1="256.7361111111111" y1="0" x2="256.7361111111111" y2="5" style="visibility: inherit;" fill="rgb(0, 0, 0)" stroke="rgb(204, 204, 204)" stroke-width="1px"></line><line x1="288.828125" y1="0" x2="288.828125" y2="5" style="visibility: inherit;" fill="rgb(0, 0, 0)" stroke="rgb(204, 204, 204)" stroke-width="1px"></line></g><g transform="translate(0, 8)"><text x="0" y="0" dx="0em" dy="0.95em" style="text-anchor: middle; visibility: hidden; font-family: Roboto, sans-serif; font-size: 12px; font-weight: 200;" fill="rgb(33, 33, 33)" stroke="none" stroke-width="1px">0</text><text x="32.092013888888886" y="0" dx="0em" dy="0.95em" style="text-anchor: middle; visibility: inherit; font-family: Roboto, sans-serif; font-size: 12px; font-weight: 200;" fill="rgb(33, 33, 33)" stroke="none" stroke-width="1px">100</text><text x="64.18402777777777" y="0" dx="0em" dy="0.95em" style="text-anchor: middle; visibility: inherit; font-family: Roboto, sans-serif; font-size: 12px; font-weight: 200;" fill="rgb(33, 33, 33)" stroke="none" stroke-width="1px">200</text><text x="96.27604166666666" y="0" dx="0em" dy="0.95em" style="text-anchor: middle; visibility: inherit; font-family: Roboto, sans-serif; font-size: 12px; font-weight: 200;" fill="rgb(33, 33, 33)" stroke="none" stroke-width="1px">300</text><text x="128.36805555555554" y="0" dx="0em" dy="0.95em" style="text-anchor: middle; visibility: inherit; font-family: Roboto, sans-serif; font-size: 12px; font-weight: 200;" fill="rgb(33, 33, 33)" stroke="none" stroke-width="1px">400</text><text x="160.46006944444446" y="0" dx="0em" dy="0.95em" style="text-anchor: middle; visibility: inherit; font-family: Roboto, sans-serif; font-size: 12px; font-weight: 200;" fill="rgb(33, 33, 33)" stroke="none" stroke-width="1px">500</text><text x="192.55208333333331" y="0" dx="0em" dy="0.95em" style="text-anchor: middle; visibility: inherit; font-family: Roboto, sans-serif; font-size: 12px; font-weight: 200;" fill="rgb(33, 33, 33)" stroke="none" stroke-width="1px">600</text><text x="224.64409722222223" y="0" dx="0em" dy="0.95em" style="text-anchor: middle; visibility: inherit; font-family: Roboto, sans-serif; font-size: 12px; font-weight: 200;" fill="rgb(33, 33, 33)" stroke="none" stroke-width="1px">700</text><text x="256.7361111111111" y="0" dx="0em" dy="0.95em" style="text-anchor: middle; visibility: inherit; font-family: Roboto, sans-serif; font-size: 12px; font-weight: 200;" fill="rgb(33, 33, 33)" stroke="none" stroke-width="1px">800</text><text x="288.828125" y="0" dx="0em" dy="0.95em" style="text-anchor: middle; visibility: hidden; font-family: Roboto, sans-serif; font-size: 12px; font-weight: 200;" fill="rgb(33, 33, 33)" stroke="none" stroke-width="1px">900</text></g><line x1="0" y1="0" x2="288.828125" y2="0" fill="rgb(0, 0, 0)" stroke="rgb(204, 204, 204)" stroke-width="1px"></line></g></g></g></g></svg>